<svg xmlns="http://www.w3.org/2000/svg" xmlns:xlink="http://www.w3.org/1999/xlink" fill="none" version="1.1" width="200" height="64" viewBox="0 0 200 64"><defs><clipPath id="master_svg0_907_05314"><rect x="0" y="0" width="200" height="64" rx="0"/></clipPath><clipPath id="master_svg1_907_05405"><rect x="0" y="6" width="54" height="54" rx="0"/></clipPath></defs><g clip-path="url(#master_svg0_907_05314)"><g><path d="M67.248,30.864Q68.976,30.528,71.592,31.032Q72.72,31.247999,76.056,31.247999Q78.408001,31.247999,78.94800000000001,31.296Q79.488001,31.344,79.656,31.488001Q79.896,31.704,79.908001,31.823999Q79.92,31.944,79.68,32.184Q79.440001,32.424,78.144001,32.544001L75.983999,32.712Q74.52,32.855999,72.62400099999999,32.208Q71.76,31.944,70.38,31.691999Q69,31.440001,67.992,31.572001Q66.9840002,31.704,66.6719999,31.823999Q66.2880001,31.944,64.1280003,32.063998999999995Q61.9679999,32.184,61.6799998,32.087998999999996Q61.2719998,31.92,61.0320001,31.92Q60.7680001,31.92,60.4319999,31.667999Q60.096000000000004,31.416,60.096000000000004,31.176001Q60.096000000000004,31.032,60.2279999,30.983999Q60.3600001,30.936001,60.9119999,30.936001Q61.704,30.936001,61.9200001,30.936001Q62.4240003,31.032,64.6080003,31.007999Q66.7919998,30.983999,67.248,30.864ZM61.5120001,23.472Q61.6799998,23.472,61.980000000000004,23.759999999999998Q62.2800002,24.048000000000002,62.2800002,24.576Q62.2800002,25.104,62.5799999,26.556Q62.880000100000004,28.007999,62.9759998,28.584Q63.0479999,28.896,63.132,29.112Q63.2160001,29.327999,63.3000002,29.412001Q63.3839998,29.496,63.480000000000004,29.424Q63.5999999,29.351999,64.1280003,29.52Q64.6560001,29.688,64.8239999,29.832001Q65.0640001,30.024,65.0279999,30.143999Q64.9920001,30.264,64.632,30.408001Q63.7200003,30.816,63,30.372Q62.2800002,29.927999,62.2800002,29.016001Q62.2800002,28.728001,61.8120003,27.336Q61.3439999,25.944,61.1880002,25.440001Q61.0320001,24.936,60.9119999,24.864Q60.7920001,24.792,60.24,25.044001Q59.688,25.296,59.352,25.296Q59.016,25.296,58.584,25.056Q58.248,24.887999999999998,58.164,24.792Q58.08,24.695999999999998,58.104,24.528Q58.152,24.311999999999998,58.368,24.216Q58.584,24.119999999999997,59.424,23.927999Q60.6240001,23.592,61.0079999,23.544001L61.5120001,23.472ZM73.632,18.7679996Q73.632,18.5999994,73.908001,18.6719999Q74.184,18.7439995,74.78399999999999,18.816000000000003Q76.488001,19.08,76.535999,20.064L76.535999,20.448L76.032,20.352Q75.52799999999999,20.28,75.24,20.183999999999997Q74.952,20.088,74.292,19.512Q73.632,18.9359999,73.632,18.7679996ZM58.992,17.3039999L59.7360001,17.3280001Q60.4319999,17.3759995,60.5880001,17.5199995Q60.744,17.6639996,60.888,17.6639996Q61.0320001,17.6639996,61.164,17.9040003Q61.296,18.1440001,61.4159999,18.1440001Q61.5360003,18.1440001,61.4640002,18.048000299999998Q61.4400001,17.9759998,61.4759998,17.9399996Q61.5120001,17.9040003,61.5960002,17.9040003Q61.6799998,17.9040003,61.7160001,17.9399996Q61.7519999,17.9759998,61.7519999,18Q61.6799998,18.1440001,61.8239999,18.1919994Q61.9679999,18.2399998,61.7880001,18.3719997Q61.6079998,18.5039997,61.775999999999996,18.8039999Q61.9440002,19.104,61.7880001,19.296Q61.632,19.488,61.704,19.668Q61.775999999999996,19.848,61.6079998,19.823999999999998Q61.4400001,19.823999999999998,60.9119999,19.608Q60.336,19.416,59.664,18.7439995Q58.992,18.0719995,58.992,17.6639996L58.992,17.3039999ZM70.248,16.703999500000002Q70.248,16.3920002,70.29599999999999,16.3079996Q70.344,16.224,70.512,16.224Q70.824,16.224,71.184,16.4879999Q71.44800000000001,16.703999500000002,71.58,16.7159996Q71.712,16.727999699999998,72.096,16.631999999999998Q72.6,16.4159994,73.247999,16.4159994Q73.896,16.4159994,74.064001,16.631999999999998Q74.208,16.727999699999998,74.16,16.8000002Q74.112,16.8719997,73.848,16.9919996Q73.440001,17.2080002,72.936,17.255999600000003Q72.384,17.3280001,72.384,17.567999800000003Q72.432,17.6400003,72.55199999999999,17.724Q72.672,17.807999600000002,72.672,17.9399996Q72.672,18.0719995,72.360001,17.807999600000002L72.048,17.5439997L72,17.9279995Q71.88,18.5999994,71.868,20.52Q71.856,22.440001000000002,71.928,22.584Q72.048,22.704,72.804,22.488Q73.559999,22.271999,73.764,22.271999Q73.968,22.271999,74.34,21.948Q74.712,21.624000000000002,75.228001,21.708Q75.743999,21.792,75.983999,21.96Q76.152,22.104,76.139999,22.176001Q76.128,22.247999999999998,75.864,22.512Q75.52799999999999,22.872,75.312,22.872Q75.072001,22.872,74.460001,23.208Q73.848,23.544001,73.512001,23.880000000000003Q73.104,24.311999999999998,72.996,24.311999999999998Q72.888,24.311999999999998,72.53999999999999,24.564Q72.19200000000001,24.816000000000003,72.19200000000001,24.9Q72.19200000000001,24.983999,73.104,24.983999Q73.728001,24.983999,73.92,25.02Q74.112,25.056,74.280001,25.296Q74.44800000000001,25.487999,74.496,25.812Q74.54400100000001,26.136,74.52,27.455999Q74.47200000000001,29.304001,74.388,29.436001Q74.304001,29.568001,74.304001,30.096001Q74.304001,30.48,74.256001,30.576Q74.208,30.672001,73.968,30.695999Q73.68,30.743999,73.26,30.455999Q72.84,30.167999,72.252,29.868Q71.664001,29.568001,71.256001,29.16Q70.776,28.68,70.86,28.572001Q70.944,28.464001,71.544,28.799999Q72.024,29.016001,72.648,29.16Q73.271999,29.304001,73.392,29.16Q73.535999,29.063999,73.608,27.864Q73.68,26.664,73.559999,26.304001Q73.464001,25.944,73.152,25.908001Q72.84,25.872,72.024,26.136Q71.03999999999999,26.496,70.176,26.639999L69.264,26.784L69,27.312Q68.688,27.888,68.328,29.063999Q67.992,30,67.752,30.288Q67.512,30.576,66.9840002,30.672001Q66.7200003,30.743999,66.6719999,30.708Q66.6240005,30.672001,66.6719999,30.48Q66.7440004,30.167999,67.284,29.172001Q67.824,28.176001,68.148,27.059999Q68.472,25.944,68.64,25.632Q68.76,25.32,68.664001,25.212Q68.568,25.104,68.352,25.296Q68.16,25.464001,68.076,25.296Q67.992,25.128,67.728,25.271999Q67.464,25.392,67.236,25.380001Q67.008,25.368,66.96000000000001,25.223999Q66.8880005,25.032,66.69600009999999,25.032Q66.5039997,25.032,66.3240004,24.84Q66.1440001,24.648,66.276,24.372Q66.408,24.096,66.7919998,24.156Q67.176,24.216,68.628,23.759999999999998Q70.08,23.304000000000002,70.176,23.256000999999998Q70.2,23.183999999999997,70.104,23.028Q70.008,22.872,69.804,22.740000000000002Q69.6,22.608,69.48,22.584L68.856,22.440001000000002Q68.64,22.368000000000002,68.58,22.224Q68.52,22.08,68.688,21.936Q68.832,21.864,69.648,21.84Q70.176,21.84,70.308001,21.792Q70.440001,21.743999000000002,70.512,21.528Q70.584001,21.240000000000002,70.596,20.616Q70.608,19.992,70.536,19.92Q70.440001,19.823999999999998,69.900001,20.16Q69.36,20.496000000000002,68.904,20.951999999999998Q68.256001,21.6,67.70400000000001,22.02Q67.152,22.440001000000002,66.6359997,22.872Q66.1199999,23.304000000000002,65.7960005,23.364Q65.4720001,23.424,65.0640001,23.136Q64.9679999,23.04,64.8840003,22.955999Q64.8000002,22.872,64.7639999,22.823999Q64.7280002,22.776,64.7280002,22.776Q64.8000002,22.704,64.6560001,22.535999Q64.5360003,22.368000000000002,64.6800003,22.247999999999998Q64.8239999,22.128,65.0640001,22.176001Q65.2799997,22.247999999999998,66.2159996,21.695999999999998Q69.19200000000001,19.992,69.912,19.728Q70.368,19.559998999999998,70.476,19.392Q70.584001,19.224,70.488,18.816000000000003Q70.344,18.3359995,70.308001,18.3000002Q70.272,18.2639999,69.756001,18.5159998Q69.24,18.7679996,68.196,19.104Q67.152,19.439999999999998,66.684,19.631999999999998Q66.2159996,19.823999999999998,65.4720001,19.823999999999998Q64.7280002,19.823999999999998,64.368,19.656Q64.0320001,19.488,63.744,19.164Q63.4559999,18.8400002,63.5279999,18.720000300000002Q63.552,18.5760002,64.4400001,18.54Q65.3280001,18.5039997,66.23999979999999,18.203999500000002Q67.152,17.9040003,68.544,17.5799999Q69.936,17.255999600000003,70.092,17.2320004Q70.248,17.2080002,70.248,16.703999500000002ZM72.096,24.024Q72.792,23.256000999999998,72.672,23.256000999999998Q72.6,23.256000999999998,72.384,23.351999Q72.19200000000001,23.472,71.556,23.7Q70.92,23.927999,70.08,24.311999999999998L69.24,24.695999999999998L69.648,25.056Q70.008,25.440001,70.440001,25.368Q70.824,25.296,71.088,25.091999Q71.352,24.887999999999998,72.096,24.024ZM70.512,13.6079998Q71.52,13.2719994,71.868,13.0559998Q72.216001,12.8400002,72.432,12.959999100000001Q72.6,13.0559998,72.804,13.596000700000001Q73.007999,14.1359997,72.888,14.220000299999999Q72.768001,14.3039999,72.900001,14.46Q73.032,14.6160002,72.852,14.7600002Q72.672,14.9040003,72.672,15.0719995Q72.672,15.4560003,71.16,15.2880001Q69.576,15.0719995,68.304,15.4799995Q67.896,15.623999600000001,67.74,15.5999994Q67.584,15.5760002,67.584,15.408000000000001Q67.584,15.0480003,68.424,14.531999599999999Q69.264,14.0159998,70.512,13.6079998ZM86.44800000000001,29.063999Q87.096001,28.488001,87.21600000000001,28.572001Q87.336,28.656,86.880001,29.327999Q86.52,29.832001,86.52,30.455999Q86.52,31.08,86.087999,31.667999Q85.656,32.256001,85.656,32.351999Q85.656,32.568000999999995,85.28399999999999,32.903999Q84.912001,33.239999999999995,84.672001,33.239999999999995Q84.431999,33.263999999999996,84.336,33.191998999999996Q84.24,33.120001,84.096001,32.832001000000005Q83.664,31.823999,84.191999,31.271999Q84.576,30.936001,84.576,30.743999Q84.576,30.576,85.007999,30.143999Q85.440001,29.712,85.70400000000001,29.639999Q85.944,29.544001,86.44800000000001,29.063999ZM99.192001,26.879999Q99.288002,26.784,99.924,26.832001Q100.55999800000001,26.879999,101.316002,27.048Q102.071999,27.216,102.16799900000001,27.360001Q102.576,27.888,101.880001,28.32Q101.13600199999999,28.799999,100.32,28.296Q100.056,28.128,99.503998,28.332001Q98.952,28.535999,98.868,28.427999Q98.78399999999999,28.32,99,27.864Q99.21600000000001,27.408001,99.18,27.18Q99.144001,26.952,99.192001,26.879999ZM96.408001,27.048Q96.695999,26.952,97.056,26.868Q97.416,26.784,97.632,26.784Q97.848,26.784,97.848,26.855999Q97.848,26.952,97.152,27.323999Q96.456001,27.695999,96.239998,28.128L96,28.559999L96.335999,28.992001Q96.84,29.639999,97.416,29.568001Q97.608002,29.544001,97.956001,29.724001Q98.304001,29.903999,98.592003,29.903999Q98.78399999999999,29.903999,99.552002,30.275999Q100.32,30.648001,100.391998,30.768Q100.535999,31.007999,100.295998,31.344Q100.056,31.68,99.62400099999999,31.92L99.024002,32.256001L96.096001,32.256001Q94.007999,32.232,93.503998,32.195999Q93,32.16,92.543999,31.944Q91.32,31.440001,91.32,31.223999Q91.32,31.152,90.852001,30.288Q90.383999,29.424,90.456001,29.375999Q90.695999,29.16,92.08800099999999,29.879999Q93.239998,30.408001,93.43199899999999,30.719999Q93.576,30.912001,93.779999,30.959999Q93.984001,31.007999,94.944,31.007999Q96.288002,31.007999,96.288002,30.948Q96.288002,30.888,95.844002,30.216Q95.400002,29.544001,95.076,29.544001Q94.751999,29.544001,94.464001,29.232Q94.17599899999999,28.92,94.056,28.92Q93.743999,28.92,93.743999,28.32Q93.743999,28.08,94.08000200000001,28.08Q94.416,28.08,95.076,27.719999Q95.73599999999999,27.360001,96.408001,27.048ZM87.336,25.128Q87.45599899999999,24.84,87.708,24.9Q87.959999,24.96,88.764,24.444000000000003Q89.56800100000001,23.927999,89.760002,23.844Q89.952,23.759999999999998,90.91199900000001,23.087999Q91.87200200000001,22.416,92.052002,22.416Q92.232002,22.416,91.560001,23.087999Q90.91199900000001,23.688000000000002,90.155998,24.695999999999998Q89.400002,25.704,89.400002,25.896Q89.400002,26.112,89.015999,26.280001Q88.632,26.448,88.26,26.243999Q87.888,26.040001,87.55199999999999,25.944Q87.288,25.848,87.24,25.68Q87.191999,25.512001,87.336,25.128ZM95.08800099999999,22.176001Q95.688,21.936,96.84,22.488Q97.44000199999999,22.752000000000002,97.812,22.896Q98.183998,23.04,98.47200000000001,23.328Q98.639999,23.544001,98.664001,23.628Q98.688,23.712,98.543999,24.024Q98.304001,24.455999,97.992001,24.528Q97.68,24.6,97.08000200000001,24.288Q96.456001,24.024,96.155998,23.951999999999998Q95.855999,23.880000000000003,95.652,23.544001Q95.447998,23.208,95.112,22.752000000000002L94.82400100000001,22.32L95.08800099999999,22.176001ZM94.32,12.5760002Q94.391998,12.3600006,94.524002,12.407999Q94.655998,12.4559994,95.56800100000001,13.0079994L96.26400000000001,13.368L96.239998,13.9440002Q96.239998,14.5439997,96,14.783999399999999Q95.83200099999999,14.9759998,95.62799799999999,15.0120001Q95.424,15.0480003,94.68,14.9759998Q93.647999,14.9519997,93.647999,15.0959997Q93.647999,15.1919994,94.104,15.3839998Q94.944,15.7919998,94.992001,16.9919996Q95.015999,17.472000100000002,95.08800099999999,17.472000100000002Q95.16,17.472000100000002,95.807999,16.8000002Q96.456001,16.1280003,96.683998,16.0079994Q96.91199900000001,15.8879995,97.271999,16.1040001Q97.68,16.3199997,98.279999,16.548000299999998Q98.880001,16.776,98.964001,16.8719997Q99.048,16.9679995,98.807999,17.279999699999998Q98.592003,17.567999800000003,98.13600199999999,17.567999800000003Q97.535999,17.567999800000003,96.43199899999999,18.3120003Q95.928001,18.6719999,95.67600300000001,18.6719999Q95.424,18.6719999,95.08800099999999,18.8400002Q94.848,18.9840002,94.632,19.308Q94.416,19.631999999999998,94.512001,19.728Q94.584,19.8,95.928001,19.608Q97.271999,19.416,98.447998,19.151999Q99.552002,18.911999700000003,100.535999,19.008Q101.711998,19.151999,101.73599999999999,19.392Q101.73599999999999,19.512,101.447998,19.752000000000002Q101.16,19.992,100.092003,19.92Q99.024002,19.848,96.97200000000001,20.172Q94.91999799999999,20.496000000000002,94.751999,20.496000000000002Q94.584,20.496000000000002,94.344002,20.880000000000003Q94.104,21.264,94.17599899999999,21.984Q94.248001,22.704,94.08000200000001,23.208Q93.936001,23.616,93.936001,24.252000000000002Q93.936001,24.887999999999998,94.104,25.271999Q94.248001,25.559999,94.28399999999999,26.136Q94.32,26.712,94.22399899999999,26.903999Q94.08000200000001,27.144001,93.599998,27.072001Q92.975998,26.976,92.052002,26.172001Q91.12799799999999,25.368,91.248001,25.032Q91.32,24.864,91.992001,24.864Q92.496002,24.887999999999998,92.616001,24.84Q92.73599999999999,24.792,92.807999,24.6Q92.83200099999999,24.384,92.868,23.52Q92.903999,22.656,92.891998,21.875999999999998Q92.880001,21.096,92.807999,21.096Q92.664001,21.096,91.32,21.564Q89.975998,22.032,89.688,22.2Q89.304001,22.368000000000002,88.836,22.476Q88.368,22.584,87.87599900000001,22.752000000000002Q87.383999,22.92,86.58,23.087999Q85.77600100000001,23.256000999999998,85.271999,23.087999Q84.695999,22.872,84.191999,22.559998999999998Q83.688,22.247999999999998,83.688,22.032Q83.688,21.743999000000002,86.37599900000001,21.432000000000002Q89.208,21.144,92.063999,20.4L92.975998,20.16L93,18.7919998Q93.048,17.2080002,92.880001,17.2080002Q92.760002,17.1599998,92.543999,17.3999996Q92.16,17.711999900000002,90.816002,18.3599997Q89.47200000000001,19.008,89.232002,19.008Q88.968,19.008,88.200001,18.3120003Q87.62400099999999,17.807999600000002,87.540001,17.6759996Q87.45599899999999,17.5439997,87.6,17.3999996Q87.720001,17.2320004,87.87599900000001,17.2320004Q88.032,17.2320004,88.440001,17.3039999Q89.13600199999999,17.472000100000002,89.639999,17.4239998Q90.144001,17.3759995,91.32,16.9679995Q92.83200099999999,16.4879999,92.868,16.4399996Q92.903999,16.3920002,92.760002,15.7919998L92.591999,15.1440001L91.968002,15.2159996Q91.32,15.2880001,90.299999,15.623999600000001Q89.279999,15.96,89.232002,15.935999899999999Q89.183998,15.8640003,89.41199900000001,15.623999600000001Q89.639999,15.3839998,90.012001,15.0719995Q90.383999,14.7600002,90.695999,14.5439997Q91.200001,14.2080002,92.72399899999999,13.4759998Q94.248001,12.743999500000001,94.32,12.5760002ZM116.591999,21.792Q116.975998,21.743999000000002,117.119999,21.792Q117.26400000000001,21.84,117.576,22.176001Q118.152,22.799999,118.043999,23.208Q117.936001,23.616,117.16799900000001,23.688000000000002Q116.591999,23.759999999999998,116.41199900000001,23.976Q116.232002,24.191999,116.232002,24.816000000000003Q116.232002,25.200001,116.279999,25.368Q116.327999,25.535999,116.400002,25.487999Q116.543999,25.464001,117.599998,25.368Q118.512001,25.271999,118.788002,25.403999Q119.063999,25.535999,119.16,26.136Q119.232002,26.568001,119.04000099999999,26.688Q118.848,26.808001,118.104,26.736Q117.312,26.639999,116.664001,26.952L115.992001,27.24L116.063999,28.247999L116.08800099999999,29.256001L116.47200000000001,29.256001Q116.83200099999999,29.232,117.888,29.184Q118.608002,29.16,118.835999,29.208Q119.063999,29.256001,119.256001,29.472Q119.73599999999999,29.903999,119.83200099999999,30.492001Q119.928001,31.08,119.56800100000001,31.271999Q119.400002,31.368,118.355999,31.188Q117.312,31.007999,116.700001,31.091999Q116.08800099999999,31.176001,115.03200100000001,31.200001Q114.312,31.247999,113.496002,31.392Q112.68,31.535999,112.439999,31.68Q112.29600099999999,31.776001,112.29600099999999,31.92Q112.29600099999999,32.351999,111.768002,32.040001000000004Q111.672001,31.992001,111.52799999999999,31.848Q111.096001,31.488001,111.096001,31.032Q111.096001,30.072001,111.86399800000001,30.264Q112.70399900000001,30.48,113.73599999999999,29.927999Q114.456001,29.591999,114.58800099999999,29.375999Q114.720001,29.16,114.647999,28.559999Q114.552002,27.888,114.47999999999999,27.888Q114.408001,27.888,113.891998,28.091999Q113.37599900000001,28.296,112.728001,28.152Q111.192001,27.743999,110.928001,27.312Q110.591999,26.832001,111.21600000000001,26.784Q111.456001,26.784,111.936001,26.784Q112.848,26.808001,113.639999,26.472Q114.576,26.112,114.683998,25.992001Q114.792,25.872,114.695999,25.368Q114.576,24.887999999999998,114.52799999999999,24.828Q114.47999999999999,24.768,114.192001,24.816000000000003Q113.807999,24.936,112.908001,24.912001Q112.007999,24.887999999999998,111.383999,24.576Q110.760002,24.264,110.543999,24.024Q110.352001,23.808001,110.591999,23.7Q110.83200099999999,23.592,112.535999,23.04L115.248001,22.2Q116.37599900000001,21.864,116.591999,21.792ZM115.12799799999999,17.0640001Q115.200001,16.8959999,115.33200099999999,16.908Q115.464001,16.9200001,115.91999799999999,17.255999600000003Q116.47200000000001,17.592,116.616001,17.592Q116.760002,17.592,116.916,17.7959995Q117.071999,18,117.91199900000001,18.408Q119.279999,19.104,120.91199900000001,20.52Q122.279999,21.695999999999998,124.344002,22.92Q126.408005,24.144,127.416,24.360001Q127.895996,24.432000000000002,128.45999899999998,24.743999000000002Q129.024002,25.056,129.143997,25.296Q129.239998,25.559999,129.108002,25.764Q128.975998,25.968,128.736,25.896Q128.496002,25.872,128.423996,25.968Q128.35199699999998,26.063999,127.487999,26.040001Q126.503998,25.968,124.356003,25.248001Q122.208,24.528,121.535995,24.024Q120.288002,23.087999,119.616001,22.344Q118.944,21.6,118.44000199999999,20.567999999999998Q117.816002,19.344,116.807999,18.7439995Q116.256001,18.408,115.655998,17.8199997Q115.056,17.2320004,115.12799799999999,17.0640001ZM114.119999,13.632Q114.552002,13.1280003,115.487999,14.2080002L116.063999,14.8800001L115.632,15.2880001Q115.200001,15.647999800000001,114.91199900000001,15.588000300000001Q114.62400099999999,15.527999900000001,113.880001,16.2480001Q113.13600199999999,16.9679995,112.76400000000001,17.5079994Q112.391998,18.048000299999998,112.056,18.408Q110.711998,19.896,109.70399900000001,22.416Q109.32,23.472,108.52799999999999,25.128Q107.73599999999999,26.784,107.063999,27.455999Q106.391998,28.128,106.259998,28.128Q106.12799799999999,28.128,105.816002,28.416Q105.672001,28.584,105.41999799999999,28.667999Q105.16799900000001,28.752001,104.987999,28.716Q104.807999,28.68,104.807999,28.559999Q104.807999,28.416,105.86399800000001,27.144001Q106.91999799999999,25.872,107.72399899999999,24.252000000000002Q108.52799999999999,22.631999999999998,108.86399800000001,21.768Q109.271999,20.784,109.96799899999999,19.559998999999998Q110.664001,18.3359995,111.096001,17.7600002Q111.62400099999999,17.0640001,111.936001,16.6560001Q113.543999,14.375999499999999,114.119999,13.632ZM137.615997,21.72Q136.800003,21.311999999999998,136.800003,21.156Q136.800003,21,137.627998,20.916Q138.45600100000001,20.832,139.739998,20.532Q141.024002,20.232,141.264,20.232Q141.503998,20.232,141.66000400000001,20.064Q141.816002,19.896,142.04399899999999,19.967999Q142.27200299999998,20.04,143.112,20.04Q143.856003,19.992,144.204002,20.124000000000002Q144.55200200000002,20.256,144.45600100000001,20.544Q144.360001,20.904,144.120003,21.024Q143.879997,21.144,143.279999,21.096Q142.512001,21.072,142.428001,21.192Q142.344002,21.311999999999998,142.776001,21.816000000000003Q143.087997,22.104,143.14800300000002,22.296Q143.208,22.488,143.208,22.944000000000003Q143.208,23.616,143.316002,23.676001Q143.423996,23.736,144.264,23.616Q147.792,23.232,149.13600200000002,23.856Q149.54399899999999,24.024,149.592003,24.240000000000002Q149.639999,24.455999,149.33999599999999,24.576Q149.04000100000002,24.695999999999998,148.968002,24.84Q148.872002,24.96,148.512001,24.96Q148.152,24.96,147.912003,24.84Q147.55200200000002,24.624001,146.496002,24.492001000000002Q145.440002,24.360001,144.52800000000002,24.408L143.279999,24.432000000000002L143.208,25.872Q143.16000400000001,27.312,143.015999,27.552Q142.848,27.864,142.800003,28.584Q142.751999,29.304001,142.848,29.832001Q142.992004,30.455999,142.751999,31.799999Q142.608002,32.736000000000004,142.524002,32.952Q142.440002,33.167998999999995,142.199997,33.239999999999995Q141.912003,33.336,141.204002,33Q140.496002,32.664,140.195999,32.424Q139.895996,32.184,139.391998,32.016001Q138.45600100000001,31.728001,139.127998,31.488001Q139.463997,31.392,140.16000400000001,31.344Q140.856003,31.344,141.096001,31.212Q141.33599900000002,31.08,141.480003,30.648001Q141.671997,29.976,141.83999599999999,27.84Q142.008003,25.704,141.912003,25.200001Q141.83999599999999,24.912001,141.767998,24.851999Q141.695999,24.792,141.480003,24.792Q141.143997,24.84,139.860001,25.212Q138.576004,25.584,138.311996,25.68Q137.615997,26.016001,136.379997,26.327999Q135.143997,26.639999,134.54399899999999,26.639999Q133.91999800000002,26.639999,133.008003,26.219999Q132.096001,25.799999,132.143997,25.691999Q132.192001,25.584,133.344002,25.512001Q135.62400100000002,25.344,138.216003,24.695999999999998Q138.792,24.576,140.195999,24.288Q141.599998,24,141.74400300000002,24Q141.767998,24,141.732002,23.676001Q141.695999,23.351999,141.63600200000002,22.932000000000002Q141.576004,22.512,141.503998,22.271999Q141.407997,21.887999999999998,141.167999,21.828Q140.928001,21.768,140.304001,22.007998999999998Q139.17600299999998,22.440001000000002,137.615997,21.72ZM134.879997,17.5199995Q135.695999,17.0159998,135.695999,17.472000100000002Q135.695999,17.807999600000002,135.384003,18.8640003Q134.856003,20.712,134.279999,21.048000000000002Q133.968002,21.168,133.860001,21.084Q133.751999,21,133.295998,20.208L132.912003,19.488L133.17600299999998,19.151999Q133.416,18.816000000000003,133.416,18.6960001Q133.416,18.623999599999998,133.91999800000002,18.203999500000002Q134.424004,17.7839994,134.879997,17.5199995ZM140.807999,16.1040001Q140.807999,15.96,140.520004,15.4799995Q140.232002,15,139.907997,14.088000300000001Q139.584,13.1760006,139.356003,12.8519993Q139.127998,12.527999900000001,139.188004,12.468000400000001Q139.248001,12.407999,140.35199699999998,12.407999Q141.071999,12.4319992,141.251999,12.468000400000001Q141.43199900000002,12.5039997,141.503998,12.6480007Q141.52800000000002,12.8640003,141.75599699999998,12.9359989Q141.984001,13.0079994,142.06800099999998,13.4279995Q142.152,13.8479996,142.248001,13.9200001Q142.367996,13.9920006,142.356003,14.46Q142.344002,14.9279995,142.17600299999998,15.0959997Q142.008003,15.3359995,142.008003,15.623999600000001Q142.008003,15.8400002,142.104004,15.8640003Q142.199997,15.8879995,142.751999,15.8640003Q147.52800000000002,15.3839998,149.232002,16.8719997Q149.88000499999998,17.3999996,149.856003,17.651999500000002Q149.832001,17.9040003,149.208,18.048000299999998Q148.584,18.1919994,148.031998,18.1919994Q147.479996,18.1919994,147.360001,18.3000002Q147.239998,18.408,146.54399899999999,18.6599998Q145.848,18.911999700000003,145.559998,18.779999699999998Q145.27200299999998,18.6479998,145.27200299999998,18.5640001Q145.27200299999998,18.479999499999998,146.112,17.772000300000002Q146.951996,17.0640001,146.951996,16.8959999Q146.951996,16.727999699999998,146.44799799999998,16.5Q145.94400000000002,16.272000300000002,145.559998,16.272000300000002Q144.45600100000001,16.272000300000002,142.992004,16.727999699999998Q141,17.3999996,139.788002,17.4840002Q138.576004,17.567999800000003,137.66400099999998,17.183999999999997Q136.94400000000002,16.8479996,136.94400000000002,16.7399998Q136.94400000000002,16.631999999999998,137.832001,16.5599995Q140.807999,16.3439999,140.807999,16.1040001ZM164.856,22.224Q164.808,20.784,164.712,20.496000000000002Q164.61599999999999,20.208,164.868,19.848Q165.12,19.488,165.144,19.488Q165.216,19.488,166.14,19.908Q167.064,20.328,167.16,20.448Q167.376,20.567999999999998,167.304,21.144Q167.232,21.72,167.232,21.948Q167.232,22.176001,167.04000000000002,22.631999999999998L166.8,23.064L168.096,23.087999Q169.392,23.087999,170.51999999999998,23.351999Q171.744,23.664,171.97199999999998,23.916Q172.2,24.167999000000002,171.84,24.864Q171.6,25.344,171.6,25.644001Q171.6,25.944,171.42000000000002,26.496Q171.24,27.048,171.072,28.68Q170.736,31.872,170.064,32.495999999999995L169.776,32.736000000000004L168.672,31.559999Q167.904,30.719999,167.664,30.552Q167.424,30.384001,167.232,30.455999Q166.89600000000002,30.528,166.752,30.816Q166.656,31.08,166.512,31.139999Q166.368,31.200001,166.05599999999998,31.056Q165.792,30.912001,165.624,30.972Q165.45600000000002,31.032,164.808,31.416L163.89600000000002,31.92L163.344,31.704Q162.792,31.464001,162.372,31.524Q161.952,31.584,161.61599999999999,31.392Q161.184,31.128,160.848,30.708Q160.512,30.288,160.44,29.976Q160.368,29.568001,160.11599999999999,28.848Q159.864,28.128,159.756,27.108Q159.648,26.087999,159.43200000000002,25.608Q159.312,25.200001,159.336,24.516Q159.36,23.832,159.52800000000002,23.832Q159.6,23.832,159.97199999999998,24.131999999999998Q160.344,24.432000000000002,160.608,24.432000000000002Q160.872,24.432000000000002,161.988,24.252000000000002Q163.10399999999998,24.072001,163.2,24Q163.344,23.927999,164.112,23.808001L164.904,23.664L164.856,22.224ZM169.824,23.976Q169.344,23.736,168.38400000000001,23.652Q167.424,23.567999999999998,167.16,23.808001Q166.96800000000002,23.976,166.92000000000002,24.191999Q166.872,24.408,166.8,25.08L166.728,26.112L167.256,26.184Q167.808,26.256001,168.45600000000002,26.292Q169.10399999999998,26.327999,169.248,26.52Q169.512,26.952,168.648,27.119999Q168.38400000000001,27.191999,167.976,27.216Q167.04000000000002,27.336,166.8,27.552Q166.56,27.768,166.656,28.392Q166.752,28.968,166.752,29.184Q166.752,29.4,167.064,29.4Q167.4,29.4,167.736,29.556Q168.072,29.712,168.144,29.879999Q168.24,30.216,169.03199999999998,30.6Q169.824,30.983999,169.94400000000002,30.743999Q170.088,30.576,170.256,29.556Q170.424,28.535999,170.4,28.104Q170.4,27.528,170.4,26.256001Q170.424,24.936,170.328,24.564Q170.232,24.191999,169.824,23.976ZM165.144,25.848Q165.072,24.864,164.988,24.78Q164.904,24.695999999999998,163.96800000000002,25.188Q163.03199999999998,25.68,161.952,25.872L160.92000000000002,26.087999L160.94400000000002,26.832001Q160.99200000000002,27.528,161.088,27.624001Q161.184,27.719999,162.264,27.504L164.28,27.024L165.24,26.832001L165.144,25.848ZM165.40800000000002,28.776001Q165.38400000000001,28.176001,165.264,28.139999Q165.144,28.104,164.736,28.368Q164.304,28.704,163.38,29.052Q162.45600000000002,29.4,162.048,29.448Q161.61599999999999,29.472,161.60399999999998,29.604Q161.59199999999998,29.736,162,30.191999Q162.336,30.552,162.648,30.587999Q162.95999999999998,30.624001,163.608,30.384001Q164.184,30.143999,164.712,30.072001Q165.144,29.976,165.3,29.712Q165.45600000000002,29.448,165.40800000000002,28.776001ZM155.44799799999998,21.816000000000003Q155.496002,21.503999999999998,155.400002,21.084Q155.304001,20.664,155.54399899999999,20.436Q155.783997,20.208,155.963997,20.208Q156.143997,20.208,156.407997,19.848Q156.671997,19.488,156.816002,19.488Q156.95999899999998,19.488,157.272,18.96Q157.584,18.432000199999997,157.96800000000002,18.1800003Q158.352,17.9279995,158.664,17.9279995Q158.832,17.9279995,158.868,17.9759998Q158.904,18.0240002,158.856,18.1919994Q158.76,18.4560003,158.53199999999998,19.380000000000003Q158.304,20.304000000000002,157.56,21.624000000000002Q157.07999999999998,22.464,156.87599899999998,22.716Q156.671997,22.968,156.480003,22.968Q156.167999,23.016,155.783997,22.584Q155.400002,22.152,155.44799799999998,21.816000000000003ZM163.392,13.0079994Q163.512,12.8880005,163.62,12.9120007Q163.728,12.9359989,164.136,13.247999199999999Q164.44799999999998,13.4400005,165.048,13.6439991Q165.648,13.8479996,165.912,14.064000100000001Q166.416,14.4239998,166.464,16.0079994L166.464,16.631999999999998L168,16.6079998Q169.512,16.5839996,170.59199999999998,16.776Q171.672,16.9679995,172.05599999999998,16.9560003Q172.44,16.944000199999998,173.01600000000002,17.3759995Q173.59199999999998,17.807999600000002,174.024,18.048000299999998Q174.624,18.3599997,174.612,18.623999599999998Q174.6,18.8879995,173.928,19.272Q173.54399999999998,19.488,173.232,19.548000000000002Q172.92000000000002,19.608,172.03199999999998,19.631999999999998Q170.688,19.656,170.316,19.811999999999998Q169.94400000000002,19.967999,169.776,19.8Q169.32,19.224,171,18.0959997Q171.024,18.048000299999998,170.904,17.9040003Q170.784,17.7600002,170.60399999999998,17.6040001Q170.424,17.448,170.28,17.4239998Q169.728,17.183999999999997,168.312,17.4359999Q166.89600000000002,17.6879997,165.95999999999998,18.1919994Q164.808,18.7679996,162.792,18.7919998Q161.54399999999998,18.7919998,161.148,18.7080002Q160.752,18.623999599999998,160.704,18.3000002Q160.656,17.9759998,160.716,17.8920002Q160.776,17.807999600000002,161.808,17.6759996Q162.84,17.5439997,163.692,17.411999700000003Q164.54399999999998,17.279999699999998,164.88,17.279999699999998Q165.216,17.279999699999998,165.216,17.2080002Q165.216,17.1359997,164.64,16.776Q163.704,16.1999998,163.344,14.6160002Q163.128,13.8239994,163.26,13.632Q163.392,13.4400005,163.308,13.3080006Q163.224,13.1760006,163.392,13.0079994Z" fill="#FFFFFF" fill-opacity="1"/></g><g><path d="M61.8239999,53.120001Q59.9519999,53.048,59.9519999,50.995999999999995Q59.9519999,50.492001,60.0239999,49.141999999999996Q60.096000000000004,47.792,60.0779998,46.748001Q60.0599999,45.704,59.9519999,45.091999Q59.8439999,44.624001,59.0879998,43.778Q58.3319999,42.931999000000005,58.439999900000004,42.464000999999996Q58.512,42.212002,59.0699999,41.870001Q59.6279998,41.528,59.6279998,41.060001Q59.7719998,40.34,59.5019999,38.522001Q59.2319999,36.704,59.556,36.236000000000004Q59.7359998,35.912001000000004,60.2399998,35.912001000000004Q61.3559999,35.912001000000004,61.572,38.18Q61.7159996,40.484001,61.9319997,40.736000000000004Q62.1479998,41.024,62.652,41.204Q63.1559997,41.384001,63.9839997,41.492001Q64.8119998,41.6,65.3699999,41.672001Q65.9279995,41.743999,66.9719992,41.816002Q68.016,41.888000000000005,68.231999,41.888000000000005Q64.8119998,42.896,64.2359996,43.040001000000004Q62.652,43.364000000000004,62.3279996,43.616001Q61.6799998,44.084,61.6799998,45.308001000000004Q61.6799998,47.288,61.842,48.530001Q62.0039997,49.771999,62.5079999,50.995999999999995Q63.0119996,50.852001,63.4439998,50.726Q63.8759999,50.6,64.0379996,50.546Q64.1999998,50.492001,64.5059996,50.456001Q64.8119998,50.42,65.3519993,50.42Q65.2079992,51.427999,64.0919995,52.274Q62.9759998,53.120001,61.8239999,53.120001ZM69.275999,43.832001000000005Q69.311999,42.860001,69.15,41.564001000000005Q68.987999,40.268001999999996,68.789999,39.314001Q68.591999,38.360001,68.591999,37.316Q68.591999,36.272001,68.952,35.624001Q69.023999,35.552,69.15,35.624001Q69.275999,35.696001,69.293999,35.696001Q69.311999,35.696001,69.419999,35.804001L69.527999,35.912001000000004Q69.959999,36.308001000000004,70.247999,36.92Q70.535999,37.532001,70.64399900000001,38.522001Q70.751999,39.512001,70.769999,40.088001Q70.787999,40.664001,70.769999,42.049999Q70.751999,43.436001000000005,70.751999,43.760000000000005Q70.751999,44.192001000000005,70.931999,45.019999999999996Q71.039999,44.912001000000004,71.651999,44.426001Q72.263999,43.940000999999995,72.461999,43.796001000000004Q72.659999,43.652,73.19999899999999,43.256001Q73.739998,42.860001,74.009998,42.698002Q74.279999,42.535999000000004,74.783998,42.248001Q75.287998,41.960001,75.629999,41.852001Q75.97200000000001,41.743999,76.421999,41.636002000000005Q76.871998,41.528,77.267998,41.528Q79.175999,41.528,79.175999,44.480000000000004Q79.175999,45.812,79.373999,48.17Q79.571999,50.528,79.571999,50.816Q79.571999,51.104,79.841999,51.374001Q80.112,51.644001,80.399998,51.752001Q80.615997,51.5,80.903999,51.572001Q81.119999,51.608000000000004,81.57,51.716Q82.019999,51.824000999999996,82.146,51.841999Q82.271999,51.860001,82.541998,51.950001Q82.811998,52.040001000000004,82.865999,52.130001Q82.91999799999999,52.220000999999996,83.063999,52.382000000000005Q83.207998,52.544001,83.279999,52.742001Q83.351999,52.940000999999995,83.459999,53.263999999999996L79.751999,54.164Q78.81599800000001,54.128,78.275999,53.57Q77.736,53.012001,77.627998,52.166Q77.519999,51.32,77.501999,50.257999Q77.483997,49.195999,77.57399699999999,48.134001Q77.66399799999999,47.072001,77.591999,46.1Q77.556,45.632000000000005,77.501999,45.326Q77.447998,45.019999999999996,77.37599900000001,44.66Q77.303999,44.299999,77.16,44.120001Q77.015999,43.940000999999995,76.799999,43.796001000000004Q76.584,43.652,76.259998,43.688Q75.935999,43.724001,75.46799899999999,43.903999Q74.279999,44.336,73.001999,45.740002000000004Q71.72399899999999,47.144001,71.219999,48.440000999999995Q70.967999,49.124001,70.823999,50.924Q70.679998,52.796,69.527999,53.263999999999996Q68.952,52.076,68.843999,50.635999999999996Q68.73599899999999,49.195999,69.005999,46.802Q69.275999,44.408001,69.275999,43.832001000000005ZM92.063995,43.832001000000005Q93.251999,43.148001,94.601997,42.950001Q95.95199600000001,42.752001,96.95999499999999,43.292Q97.967995,43.832001000000005,97.967995,45.128Q97.967995,46.136002000000005,97.01399599999999,47.09Q96.05999800000001,48.044001,94.943996,48.440000999999995Q94.331997,48.692001000000005,93.449997,48.962Q92.56799699999999,49.232,92.117996,49.375999Q91.66799499999999,49.519999999999996,91.10999699999999,49.880001Q90.551998,50.239999999999995,90.119995,50.708Q91.66799499999999,51.104,93.521996,50.762001Q95.375996,50.42,96.70799600000001,49.844Q98.039997,49.268,99.85799399999999,48.710001Q101.675995,48.152,103.187996,48.152Q102.97199599999999,49.124001,102.10799399999999,49.664001Q101.711998,49.916,100.523994,50.42Q99.335999,50.924,97.319996,51.698Q95.30399700000001,52.472,95.19599500000001,52.507999Q94.079998,52.976,92.927998,53.174Q91.77599699999999,53.372,90.623997,53.209998999999996Q89.47199599999999,53.048,88.715996,52.4Q88.571997,52.327999,88.139997,51.860001Q87.70799600000001,51.391999999999996,87.41999799999999,51.356001Q87.167997,51.356001,86.249996,51.59Q85.331997,51.824000999999996,84.935997,51.860001Q84.395996,51.896,84.107998,51.5Q83.819998,51.104,83.819998,50.6Q83.819998,50.167998999999995,84.143997,50.006001Q84.467997,49.844,84.881996,49.861999999999995Q85.295998,49.880001,85.81799699999999,49.861999999999995Q86.339996,49.844,86.66399799999999,49.664001Q87.563997,49.412001000000004,87.81599800000001,49.106001Q88.06799699999999,48.799999,88.535997,47.576Q88.715996,47.035999000000004,88.91399799999999,46.622001999999995Q89.111996,46.208,89.41799499999999,45.848Q89.72399899999999,45.488001,89.867996,45.308001000000004Q90.01199700000001,45.128,90.515999,44.804001Q91.01999699999999,44.480000000000004,91.18199899999999,44.372001999999995Q91.343998,44.263999999999996,92.063995,43.832001000000005ZM90.407997,47.864000000000004Q91.70399499999999,47.936001000000005,92.85599500000001,47.504002Q94.00799599999999,47.072001,94.691998,46.532001Q95.375996,45.992001,96.383995,45.019999999999996Q94.403996,44.768001999999996,92.85599500000001,45.596001Q91.307999,46.424,90.407997,47.864000000000004ZM116.471992,36.488001Q117.119995,37.280001,117.425995,38.702002Q117.731995,40.124001,117.69599500000001,41.582001000000005Q117.659996,43.040001000000004,117.623993,44.732Q117.58799400000001,45.488001,117.74999199999999,46.802Q117.91199499999999,48.116001,118.073994,49.178000999999995Q118.23599200000001,50.239999999999995,118.145996,51.41Q118.055992,52.58,117.623993,53.263999999999996Q112.871994,50.276001,107.363995,46.459998999999996Q107.03999300000001,47.108002,106.643993,49.178000999999995Q106.24799300000001,51.248001,106.24799300000001,51.284Q105.85199399999999,51.212,105.131996,51.284Q104.879993,50.312,105.113995,48.728001Q105.347996,47.144001,105.54599400000001,46.1Q105.74399600000001,45.056,105.383995,43.903999Q105.383995,43.832001000000005,105.131996,43.436001000000005Q104.879993,43.040001000000004,104.663994,42.608002Q104.447994,42.176001,104.555996,41.888000000000005Q104.591995,41.780001,104.78999300000001,41.653999Q104.987995,41.528,105.077995,41.348Q105.16799499999999,41.167998999999995,105.131996,40.880001Q105.059994,40.375999,105.09599299999999,39.512001Q105.131996,38.648001,105.275993,38.432001Q105.49199300000001,38.072001,106.24799300000001,37.604Q106.71599599999999,38.036001,107.09399400000001,40.610001Q107.471992,43.184002,107.543995,43.364000000000004Q107.79599400000001,44.192001000000005,108.20999499999999,44.768001999999996Q108.623993,45.344002,108.983994,45.650002Q109.34399400000001,45.956001,110.117996,46.513999999999996Q110.891994,47.072001,111.395996,47.504002Q113.05199400000001,48.872,113.663994,49.232Q114.85199399999999,49.844,116.471992,49.844Q115.931995,47.468,115.931995,41.6Q115.931995,41.348,115.769993,40.322001Q115.60799399999999,39.296001000000004,115.571995,38.648001Q115.535995,38,115.751995,37.316Q116.003994,36.776001,116.471992,36.488001ZM121.547997,52.724001Q121.511993,47.756001,120.287994,40.16Q120.251995,39.872002,120.305996,39.638Q120.35999699999999,39.404001,120.467995,39.242001Q120.575996,39.08,120.809994,38.936001Q121.043999,38.792,121.205994,38.720000999999996Q121.367996,38.648001,121.691994,38.558001000000004Q122.015991,38.468,122.159996,38.450001Q122.303993,38.432001,122.645996,38.378Q122.987991,38.324001,123.023994,38.324001Q126.263992,37.820002,129.251999,38.702002Q132.239998,39.584002,130.907997,41.888000000000005Q130.043991,43.472,128.495995,44.228001Q126.947998,44.984001,124.103996,45.596001Q123.275993,45.740002000000004,122.969994,46.298Q122.663994,46.855999,122.591995,47.936001000000005Q122.591995,48.476,122.681992,49.25Q122.771996,50.024,122.843994,50.546Q122.915993,51.068000999999995,122.879997,51.572001Q122.843994,52.076,122.519997,52.364000000000004Q122.195992,52.652,121.547997,52.724001ZM129.179993,40.880001Q128.99999200000002,40.052002,127.919998,39.692001Q126.839996,39.332001,125.579994,39.494001Q124.319992,39.656,123.599998,40.124001Q122.411995,40.952,122.411995,42.176001Q122.411995,42.68,122.537994,43.021999Q122.663994,43.364000000000004,122.789993,43.562Q122.915993,43.760000000000005,123.257996,43.85Q123.599998,43.940000999999995,123.797997,43.958Q123.995995,43.976002,124.463997,43.903999Q124.931992,43.832001000000005,125.111992,43.796001000000004Q125.291992,43.760000000000005,125.795998,43.616001Q126.695999,43.400002,127.991997,42.464000999999996Q129.287994,41.528,129.179993,40.880001ZM134.723991,50.995999999999995Q136.09198800000001,50.995999999999995,137.729988,50.438Q139.367989,49.880001,140.609993,49.268Q141.85199,48.656,143.507988,48.278Q145.163986,47.900002,146.675995,48.152Q146.063988,49.195999,145.163986,49.646Q144.263992,50.096001,142.39199100000002,50.635999999999996Q142.21199000000001,50.672001,142.103989,50.708Q141.347992,50.924,139.07998700000002,51.68Q136.81198899999998,52.436001000000005,135.55199399999998,52.724001Q134.03999299999998,53.048,133.175995,52.292Q132.31198899999998,51.535999000000004,132.185989,50.222Q132.05999,48.908001,132.36599,47.468Q132.671989,46.028,133.28398900000002,45.019999999999996Q134.18399,43.544001,135.785988,41.906Q137.387993,40.268001999999996,138.68399,39.620001Q138.899994,39.548,139.439987,39.242001Q139.979988,38.936001,140.35798599999998,38.774Q140.735992,38.612001,141.05999,38.612001Q141.563988,38.612001,141.779991,39.08Q141.995987,39.548,141.707993,39.944Q141.563988,40.196000999999995,141.43798800000002,40.34Q141.31198899999998,40.484001,141.05999,40.646Q140.80799100000002,40.808001000000004,140.68199199999998,40.880001Q140.555992,40.952,140.069992,41.167998999999995Q139.583992,41.384001,139.331993,41.528Q138.21598799999998,42.032001,137.405991,42.734001Q136.59599300000002,43.436001000000005,135.695992,44.480000000000004Q135.371994,44.84,135.137993,45.181999000000005Q134.90399200000002,45.524,134.759995,45.757999Q134.61599,45.992001,134.471992,46.370001Q134.327988,46.748001,134.255989,46.91Q134.18399,47.072001,134.021988,47.594002Q133.859993,48.116001,133.787994,48.367999999999995Q133.64399,48.799999,133.589989,49.25Q133.535988,49.700001,133.589989,50.114000000000004Q133.64399,50.528,133.93199199999998,50.762001Q134.21999399999999,50.995999999999995,134.723991,50.995999999999995Z" fill="#FFFFFF" fill-opacity="1"/></g><g clip-path="url(#master_svg1_907_05405)"><g><path d="M32.508003421875,42.538657671875C31.232030421875,44.342708671875,29.909929421875,45.985656671875,28.578378421875,47.432861671875C32.341054421875,51.084380671875,35.840480421875,52.794383671875,37.782001421875,51.673427671875C39.723529421875,50.552482671875,39.992405421875,46.666957671875,38.711479421875,41.582628671875C36.792232421875,42.012155671875,34.708503421875,42.335708671875,32.508003421875,42.538657671875ZM29.560503421875,42.734632671875005C28.719228421875,42.769506671875,27.865127421875,42.787278671875,27.000681421875,42.787278671875C26.136228421875,42.787278671875,25.282129421875,42.769506671875,24.441080421875,42.734632671875005C25.288656421875,43.842307671875,26.146804421875,44.868530671875,27.000681421875,45.803634671875C27.854555421875,44.868530671875,28.712705421875,43.842307671875,29.560503421875,42.734632671875005ZM40.902076421875,24.973759671875C46.897647421875,26.693658671875,50.813331421875,29.551204671875,50.813331421875,32.999778671875C50.813331421875,36.448129671875,46.897647421875,39.305852671875,40.902076421875,41.025754671875C42.410480421875,47.078033671875,41.893428421875,51.897754671875,38.907005421875,53.621932671875C35.920581421875,55.346111671875,31.488081421875,53.383880671875,27.000681421875,49.051509671875C22.513502421875,53.383880671875,18.080914421875,55.346111671875,15.094489421875,53.621932671875C12.108064621875,51.897754671875,11.591059721875,47.078033671875,13.099391921875,41.025754671875C7.103794821875001,39.305852671875,3.188232421875,36.448129671875,3.188232421875,32.999778671875C3.188232421875,29.551204671875,7.103794821875001,26.693658671875,13.099391921875,24.973759671875C11.591059721875,18.921483471875,12.108064621875,14.101690771874999,15.094489421875,12.377470671875C18.080914421875,10.653250571875,22.513502421875,12.615430951875,27.000681421875,16.947806871875C31.488081421875,12.615430951875,35.920581421875,10.653250571875,38.907005421875,12.377470671875C41.893428421875,14.101690771874999,42.410480421875,18.921483471875,40.902076421875,24.973759671875ZM38.711479421875,24.416861671874997C39.992405421875,19.332558171875,39.723529421875,15.446965671875,37.782001421875,14.326038171875C35.840480421875,13.205088271875,32.341054421875,14.914975871875,28.578378421875,18.566456271875C29.909929421875,20.013678571874998,31.232030421875,21.656605671875,32.508003421875,23.460700671875C34.708503421875,23.663718671875,36.792232421875,23.987224671874998,38.711479421875,24.416861671874997ZM15.289969421875,41.582628671875C14.009044421875,46.666957671875,14.277986421875,50.552482671875,16.219490421875,51.673427671875C18.160992421875,52.794383671875,21.660482421875,51.084380671875,25.423204421875,47.432861671875C24.091430421875,45.985656671875,22.769331421875,44.342708671875,21.493398421875,42.538657671875C19.293010421875,42.335708671875,17.209130421875003,42.012155671875,15.289969421875,41.582628671875ZM24.441080421875,23.264794671875002C25.282129421875,23.229964671875003,26.136228421875,23.212210671875,27.000681421875,23.212210671875C27.865127421875,23.212210671875,28.719228421875,23.229964671875003,29.560503421875,23.264794671875002C28.712705421875,22.157164671875,27.854555421875,21.130804071874998,27.000681421875,20.195748371875C26.146804421875,21.130804071874998,25.288656421875,22.157164671875,24.441080421875,23.264794671875002ZM21.493398421875,23.460700671875C22.769331421875,21.656605671875,24.091430421875,20.013678571874998,25.423204421875,18.566456271875C21.660482421875,14.914975871875,18.160992421875,13.205088271875,16.219490421875,14.326038171875C14.277986421875,15.446965671875,14.009044421875,19.332558171875,15.289969421875,24.416861671874997C17.209130421875003,23.987224671874998,19.293010421875,23.663718671875,21.493398421875,23.460700671875ZM31.261280421875,40.379329671875C32.038879421874995,39.238805671875,32.798704421875,38.032352671875,33.528379421875,36.768531671874996C34.258050421875,35.504480671875,34.922931421875,34.243352671875,35.521881421875,32.999778671875C34.922931421875,31.755979671875,34.258050421875,30.494853671875,33.528379421875,29.231029671875C32.798704421875,27.967000671875,32.038879421874995,26.760619671875,31.261280421875,25.620116671875C29.884729421875,25.516954671875,28.460252421875,25.462211671875,27.000681421875,25.462211671875C25.541330421875,25.462211671875,24.116628421875,25.516954671875,22.740079421875,25.620116671875C21.962522421875,26.760619671875,21.202810421875,27.967000671875,20.473070421875,29.231029671875C19.743326421875,30.494853671875,19.078427421875,31.755979671875,18.479526421875,32.999778671875C19.078427421875,34.243352671875,19.743326421875,35.504480671875,20.473070421875,36.768531671874996C21.202810421875,38.032352671875,21.962522421875,39.238805671875,22.740079421875,40.379329671875C24.116628421875,40.482377671875,25.541330421875,40.537280671874996,27.000681421875,40.537280671874996C28.460252421875,40.537280671874996,29.884729421875,40.482377671875,31.261280421875,40.379329671875ZM34.151630421875,40.083904671875004C35.534702421875,39.903680671875,36.852531421875,39.673728671875,38.089355421875,39.401704671874995C37.706401421875,38.194577671874995,37.246727421875,36.938402671875,36.711227421875,35.650504671875C36.320850421875,36.396377671875,35.909107421875,37.144731671875,35.476879421875,37.893531671874996C35.044654421874995,38.642103671875,34.602304421875004,39.372903671875,34.151630421875,40.083904671875004ZM19.849908421875,25.915495671875C18.466811421875,26.095811671874998,17.148920421874998,26.325762671874998,15.912185421875,26.597719671874998C16.295023421875,27.804752671875,16.754833421875,29.061155671875,17.290218421875,30.349056671875C17.680638421875003,29.603177671875,18.092275421875,28.854606671875,18.524501421875,28.105962671875C18.956747421875,27.357272671875002,19.399166421875,26.626564671875002,19.849908421875,25.915495671875ZM15.912185421875,39.401704671874995C17.148920421874998,39.673728671875,18.466811421875,39.903680671875,19.849908421875,40.083904671875004C19.399166421875,39.372903671875,18.956747421875,38.642103671875,18.524501421875,37.893531671874996C18.092275421875,37.144731671875,17.680638421875003,36.396377671875,17.290218421875,35.650504671875C16.754833421875,36.938402671875,16.295023421875,38.194577671874995,15.912185421875,39.401704671874995ZM13.712381421875,38.850007671875005C14.299903421875,36.973279671875005,15.061661421875,35.006778671875,15.986050421875,32.999778671875C15.061661421875,30.992555671875,14.299903421875,29.026279671875,13.712381421875,27.149306671875C8.668782721875,28.582128671875,5.438232421875,30.757879671875,5.438232421875,32.999778671875C5.438232421875,35.241452671874995,8.668782721875,37.417203671875,13.712381421875,38.850007671875005ZM38.089355421875,26.597719671874998C36.852531421875,26.325762671874998,35.534702421875,26.095811671874998,34.151630421875,25.915495671875C34.602304421875004,26.626564671875002,35.044654421874995,27.357272671875002,35.476879421875,28.105962671875C35.909107421875,28.854606671875,36.320850421875,29.603177671875,36.711227421875,30.349056671875C37.246727421875,29.061155671875,37.706401421875,27.804752671875,38.089355421875,26.597719671874998ZM40.289180421875,27.149306671875C39.701480421875,29.026279671875,38.939853421875,30.992555671875,38.015331421875,32.999778671875C38.939853421875,35.006778671875,39.701480421875,36.973279671875005,40.289180421875,38.850007671875005C45.332779421875,37.417203671875,48.563331421875,35.241452671874995,48.563331421875,32.999778671875C48.563331421875,30.757879671875,45.332779421875,28.582128671875,40.289180421875,27.149306671875ZM27.000681421875,37.227756671875C24.665628421875,37.227756671875,22.772703421875,35.334827671875004,22.772703421875,32.999778671875C22.772703421875,30.664504671875,24.665628421875,28.771579671875,27.000681421875,28.771579671875Q29.335956421875,28.771579671875,31.228880421875,32.999778671875Q29.335956421875,37.227756671875,27.000681421875,37.227756671875Z" fill="#177FFF" fill-opacity="1" style="mix-blend-mode:passthrough"/></g></g></g></svg>