<svg xmlns="http://www.w3.org/2000/svg" xmlns:xlink="http://www.w3.org/1999/xlink" fill="none" version="1.1" width="200" height="64" viewBox="0 0 200 64"><defs><clipPath id="master_svg0_907_05314"><rect x="0" y="0" width="200" height="64" rx="0"/></clipPath></defs><g clip-path="url(#master_svg0_907_05314)"><g><path d="M17.51200002,32.743999L19.1760001,29.576L20.6480002,18.952L19.4960001,18.952L19.9120002,16.007998999999998L26.536000299999998,16.007998999999998L24.8080006,28.392L26.5040007,28.903999L29.64,22.792L27.080001,22.792L27.432000000000002,20.296L43.528002,20.296L43.208002,22.664L41.448002,24.136L44.584002,24.136L44.104002,27.528Q43.976002,28.264,43.400002,28.776001Q42.824000999999996,29.288,42.088001,29.288L37.256001,29.288L39.336,27.271999L39.495999999999995,25.992001L35.176001,25.992001L35.432001,24.167999L36.84,22.792L34.312,22.792L31.336,29.063999L27.048000000000002,29.063999L29.192,29.704L44.072001,29.704L43.656002,32.743999L26.6320009,32.743999L23.4640002,31.816L22.9840002,32.743999L17.51200002,32.743999ZM45.448002,12.775999L39.976002,12.967999L39.816002,14.184L45.896001999999996,14.184L45.512001,16.903999L43.912001000000004,16.903999L45.416002,19.784L41.576,19.784L40.040001000000004,16.903999L39.432001,16.903999L39.016001,19.848L33.832001000000005,19.848L34.248001,16.903999L33.608002,16.903999L31.176001,19.879999L27.016001,19.879999L29.608001,16.903999L27.624001,16.903999L28.008,14.184L34.632000000000005,14.184L34.760000000000005,13.16L28.616,13.383999L28.968,10.7279987L45.800001,10.3119984L45.448002,12.775999ZM25.448,10.855999L26.7600002,14.504L22.0880003,14.504L20.7760003,10.855999L25.448,10.855999ZM57.576,14.311998L58.152,16.84L59.528,16.84L60.040001,13.351999L51.368,13.575998L51.688,11.24L75.272003,10.6639996L74.984001,12.903999L66.120003,13.16L65.608002,16.84L67.240002,16.84L68.456001,14.311998L73.99200400000001,14.311998L72.77600100000001,16.84L75.33600200000001,16.84L75.016003,19.495998L71.944,19.495998L74.760002,24.231998L68.77600100000001,24.231998L65.95999900000001,19.495998L65.256001,19.495998L64.616001,24.007999L58.536003,24.007999L59.176003,19.495998L58.375999,19.495998L54.216,24.231998L48.296001000000004,24.231998L52.456001,19.495998L49.48,19.495998L49.799999,16.84L52.616001,16.84L52.040001,14.311998L57.576,14.311998ZM53.672001,32.743999L54.728001,25.096001L60.200001,25.096001L59.496002,30.087999L66.632004,30.087999L68.008003,29.032L67.496002,32.743999L53.672001,32.743999ZM51.912003,32.743999L46.984001,32.743999L49.192001,25.576L54.120003,25.576L51.912003,32.743999ZM68.584,25.576L73.512001,25.576L73.704002,32.743999L68.77600100000001,32.743999L68.584,25.576ZM61.639999,24.872L66.47200000000001,24.872L66.344002,29.383999L61.480003,29.383999L61.639999,24.872ZM98.600006,10.2479992L104.584,19.688L100.296005,19.688L100.167999,20.584L94.087997,20.584L93.704002,23.304001L100.391998,23.304001L99.975998,26.344L93.288002,26.344L92.807999,29.704L102.536003,29.704L102.120003,32.743999L76.584,32.743999L77,29.704L86.728004,29.704L87.208,26.344L80.52000000000001,26.344L80.936001,23.304001L87.624001,23.304001L88.008003,20.584L81.928001,20.584L82.056,19.688L77.83200099999999,19.688L85.639999,11.143999L84.903999,10.2479992L98.600006,10.2479992ZM85.863998,17.543999L97.160004,17.543999L94.472,13.287998L89.768005,13.287998L85.863998,17.543999ZM116.487999,23.015999L116.839996,20.487999L108.584,20.487999L109,17.48L132.10399999999998,17.48L131.688,20.487999L123.368,20.487999L123.016,23.015999L133.16,23.015999L132.71201000000002,26.024L122.6,26.024L121.864,31.271999Q121.832,31.591999,121.608,31.944Q121.384,32.296,121.048,32.6Q120.712,32.903999,120.28,33.096001Q119.848,33.287998,119.4,33.287998L113.288002,33.287998L115.367996,31.176001L116.071999,26.024L105.959999,26.024L106.407997,23.015999L116.487999,23.015999ZM127.048,14.535999L114.888,14.535999L114.536003,16.935999000000002L107.848,16.935999000000002L108.584,11.783998L118.12,11.783998L118.216,11.24L117.192,10.2479992L125.384,10.2479992L125.16,11.783998L134.12,11.783998L133.38400000000001,16.935999000000002L126.696,16.935999000000002L127.048,14.535999ZM146.18401,18.855999L146.632,15.655998L152.90401,15.655998L152.45601,18.855999L160.84,18.855999L158.92,32.648001L135.88,32.648001L137.8,18.855999L146.18401,18.855999ZM155.976,15.047998L143.816,15.047998L143.464,17.576L136.776,17.576L137.54399999999998,12.136L146.98401,12.136L147.112,11.24L146.056,10.2479992L154.312,10.2479992L154.056,12.136L163.08,12.136L162.31201,17.576L155.62401,17.576L155.976,15.047998ZM153.832,29.704L154.18401,27.175999L151.272,27.175999L150.92,29.704L153.832,29.704ZM144.648,29.704L145,27.175999L142.18401,27.175999L141.832,29.704L144.648,29.704ZM152.04001,21.799999L151.688,24.231998L154.56801,24.231998L154.92,21.799999L152.04001,21.799999ZM142.56799999999998,24.231998L145.416,24.231998L145.76801,21.799999L142.92001,21.799999L142.56799999999998,24.231998Z" fill="#CFFF00" fill-opacity="1"/></g><g><path d="M21.8239999,53.120001Q19.9519999,53.048,19.9519999,50.995999999999995Q19.9519999,50.492001,20.0239999,49.141999999999996Q20.096,47.792,20.0779998,46.748001Q20.0599999,45.704,19.9519999,45.091999Q19.8439999,44.624001,19.0879998,43.778Q18.3319999,42.931999000000005,18.4399999,42.464000999999996Q18.512,42.212002,19.0699999,41.870001Q19.6279998,41.528,19.6279998,41.060001Q19.7719998,40.34,19.5019999,38.522001Q19.231999899999998,36.704,19.556,36.236000000000004Q19.735999800000002,35.912001000000004,20.2399998,35.912001000000004Q21.3559999,35.912001000000004,21.572,38.18Q21.7159996,40.484001,21.9319997,40.736000000000004Q22.1479998,41.024,22.652,41.204Q23.1559997,41.384001,23.9839997,41.492001Q24.8119998,41.6,25.3699999,41.672001Q25.9279995,41.743999,26.9719992,41.816002Q28.016,41.888000000000005,28.231999000000002,41.888000000000005Q24.8119998,42.896,24.2359996,43.040001000000004Q22.652,43.364000000000004,22.3279996,43.616001Q21.6799998,44.084,21.6799998,45.308001000000004Q21.6799998,47.288,21.842,48.530001Q22.0039997,49.771999,22.5079999,50.995999999999995Q23.0119996,50.852001,23.4439998,50.726Q23.8759999,50.6,24.0379996,50.546Q24.1999998,50.492001,24.5059996,50.456001Q24.8119998,50.42,25.3519993,50.42Q25.2079992,51.427999,24.0919995,52.274Q22.9759998,53.120001,21.8239999,53.120001ZM29.275999,43.832001000000005Q29.311999,42.860001,29.15,41.564001000000005Q28.987999000000002,40.268001999999996,28.789999,39.314001Q28.591999,38.360001,28.591999,37.316Q28.591999,36.272001,28.951999999999998,35.624001Q29.023999,35.552,29.15,35.624001Q29.275999,35.696001,29.293999,35.696001Q29.311999,35.696001,29.419999,35.804001L29.527999,35.912001000000004Q29.959999,36.308001000000004,30.247999,36.92Q30.535999,37.532001,30.643999,38.522001Q30.751998999999998,39.512001,30.769999,40.088001Q30.787999,40.664001,30.769999,42.049999Q30.751998999999998,43.436001000000005,30.751998999999998,43.760000000000005Q30.751998999999998,44.192001000000005,30.931998999999998,45.019999999999996Q31.039999,44.912001000000004,31.651999,44.426001Q32.263999,43.940000999999995,32.461999,43.796001000000004Q32.659999,43.652,33.199999,43.256001Q33.739998,42.860001,34.009997999999996,42.698002Q34.279999000000004,42.535999000000004,34.783998,42.248001Q35.287998,41.960001,35.629999,41.852001Q35.972,41.743999,36.421999,41.636002000000005Q36.871998000000005,41.528,37.267998,41.528Q39.175999000000004,41.528,39.175999000000004,44.480000000000004Q39.175999000000004,45.812,39.373999,48.17Q39.571999000000005,50.528,39.571999000000005,50.816Q39.571999000000005,51.104,39.841999,51.374001Q40.111999999999995,51.644001,40.399998,51.752001Q40.615997,51.5,40.903999,51.572001Q41.119999,51.608000000000004,41.57,51.716Q42.019999,51.824000999999996,42.146,51.841999Q42.271999,51.860001,42.541998,51.950001Q42.811998,52.040001000000004,42.865999,52.130001Q42.919998,52.220000999999996,43.063998999999995,52.382000000000005Q43.207998,52.544001,43.279999000000004,52.742001Q43.351999,52.940000999999995,43.459998999999996,53.263999999999996L39.751999,54.164Q38.815998,54.128,38.275999,53.57Q37.736000000000004,53.012001,37.627998000000005,52.166Q37.519999,51.32,37.501999,50.257999Q37.483997,49.195999,37.573997,48.134001Q37.663998,47.072001,37.591999,46.1Q37.556,45.632000000000005,37.501999,45.326Q37.447998,45.019999999999996,37.375999,44.66Q37.303999000000005,44.299999,37.16,44.120001Q37.015999,43.940000999999995,36.799999,43.796001000000004Q36.584,43.652,36.259997999999996,43.688Q35.935998999999995,43.724001,35.467999,43.903999Q34.279999000000004,44.336,33.001999,45.740002000000004Q31.723999,47.144001,31.219999,48.440000999999995Q30.967999,49.124001,30.823999,50.924Q30.679997999999998,52.796,29.527999,53.263999999999996Q28.951999999999998,52.076,28.843999,50.635999999999996Q28.735999,49.195999,29.005999,46.802Q29.275999,44.408001,29.275999,43.832001000000005ZM52.063995,43.832001000000005Q53.251999,43.148001,54.601997,42.950001Q55.951996,42.752001,56.959995,43.292Q57.967995,43.832001000000005,57.967995,45.128Q57.967995,46.136002000000005,57.013996,47.09Q56.059998,48.044001,54.943996,48.440000999999995Q54.331997,48.692001000000005,53.449997,48.962Q52.567997,49.232,52.117996,49.375999Q51.667995,49.519999999999996,51.109997,49.880001Q50.551998,50.239999999999995,50.119995,50.708Q51.667995,51.104,53.521996,50.762001Q55.375996,50.42,56.707996,49.844Q58.039997,49.268,59.857994,48.710001Q61.675995,48.152,63.187996,48.152Q62.971996,49.124001,62.107994,49.664001Q61.711998,49.916,60.523994,50.42Q59.335999,50.924,57.319996,51.698Q55.303997,52.472,55.195995,52.507999Q54.079998,52.976,52.927998,53.174Q51.775997,53.372,50.623997,53.209998999999996Q49.471996,53.048,48.715996000000004,52.4Q48.571996999999996,52.327999,48.139997,51.860001Q47.707996,51.391999999999996,47.419998,51.356001Q47.167997,51.356001,46.249995999999996,51.59Q45.331997,51.824000999999996,44.935997,51.860001Q44.395996,51.896,44.107997999999995,51.5Q43.819998,51.104,43.819998,50.6Q43.819998,50.167998999999995,44.143997,50.006001Q44.467997,49.844,44.881996,49.861999999999995Q45.295998,49.880001,45.817997,49.861999999999995Q46.339996,49.844,46.663998,49.664001Q47.563997,49.412001000000004,47.815998,49.106001Q48.067997,48.799999,48.535996999999995,47.576Q48.715996000000004,47.035999000000004,48.913998,46.622001999999995Q49.111996,46.208,49.417995,45.848Q49.723999,45.488001,49.867996,45.308001000000004Q50.011997,45.128,50.515999,44.804001Q51.019997,44.480000000000004,51.181999,44.372001999999995Q51.343998,44.263999999999996,52.063995,43.832001000000005ZM50.407997,47.864000000000004Q51.703995,47.936001000000005,52.855995,47.504002Q54.007996,47.072001,54.691998,46.532001Q55.375996,45.992001,56.383995,45.019999999999996Q54.403996,44.768001999999996,52.855995,45.596001Q51.307999,46.424,50.407997,47.864000000000004ZM76.471992,36.488001Q77.119995,37.280001,77.425995,38.702002Q77.731995,40.124001,77.69599500000001,41.582001000000005Q77.659996,43.040001000000004,77.623993,44.732Q77.58799400000001,45.488001,77.74999199999999,46.802Q77.91199499999999,48.116001,78.073994,49.178000999999995Q78.23599200000001,50.239999999999995,78.145996,51.41Q78.055992,52.58,77.623993,53.263999999999996Q72.871994,50.276001,67.363995,46.459998999999996Q67.03999300000001,47.108002,66.643993,49.178000999999995Q66.24799300000001,51.248001,66.24799300000001,51.284Q65.85199399999999,51.212,65.131996,51.284Q64.879993,50.312,65.113995,48.728001Q65.347996,47.144001,65.54599400000001,46.1Q65.74399600000001,45.056,65.383995,43.903999Q65.383995,43.832001000000005,65.131996,43.436001000000005Q64.879993,43.040001000000004,64.663994,42.608002Q64.447994,42.176001,64.555996,41.888000000000005Q64.591995,41.780001,64.78999300000001,41.653999Q64.987995,41.528,65.077995,41.348Q65.16799499999999,41.167998999999995,65.131996,40.880001Q65.059994,40.375999,65.09599299999999,39.512001Q65.131996,38.648001,65.275993,38.432001Q65.49199300000001,38.072001,66.24799300000001,37.604Q66.71599599999999,38.036001,67.09399400000001,40.610001Q67.471992,43.184002,67.543995,43.364000000000004Q67.79599400000001,44.192001000000005,68.20999499999999,44.768001999999996Q68.623993,45.344002,68.983994,45.650002Q69.34399400000001,45.956001,70.117996,46.513999999999996Q70.891994,47.072001,71.395996,47.504002Q73.05199400000001,48.872,73.663994,49.232Q74.85199399999999,49.844,76.471992,49.844Q75.931995,47.468,75.931995,41.6Q75.931995,41.348,75.769993,40.322001Q75.60799399999999,39.296001000000004,75.571995,38.648001Q75.535995,38,75.751995,37.316Q76.003994,36.776001,76.471992,36.488001ZM81.547997,52.724001Q81.511993,47.756001,80.287994,40.16Q80.251995,39.872002,80.305996,39.638Q80.35999699999999,39.404001,80.467995,39.242001Q80.575996,39.08,80.809994,38.936001Q81.043999,38.792,81.205994,38.720000999999996Q81.367996,38.648001,81.691994,38.558001000000004Q82.015991,38.468,82.159996,38.450001Q82.303993,38.432001,82.645996,38.378Q82.987991,38.324001,83.023994,38.324001Q86.263992,37.820002,89.251999,38.702002Q92.239998,39.584002,90.907997,41.888000000000005Q90.043991,43.472,88.495995,44.228001Q86.947998,44.984001,84.103996,45.596001Q83.275993,45.740002000000004,82.969994,46.298Q82.663994,46.855999,82.591995,47.936001000000005Q82.591995,48.476,82.681992,49.25Q82.771996,50.024,82.843994,50.546Q82.915993,51.068000999999995,82.879997,51.572001Q82.843994,52.076,82.519997,52.364000000000004Q82.195992,52.652,81.547997,52.724001ZM89.179993,40.880001Q88.999992,40.052002,87.919998,39.692001Q86.839996,39.332001,85.579994,39.494001Q84.319992,39.656,83.599998,40.124001Q82.411995,40.952,82.411995,42.176001Q82.411995,42.68,82.537994,43.021999Q82.663994,43.364000000000004,82.789993,43.562Q82.915993,43.760000000000005,83.257996,43.85Q83.599998,43.940000999999995,83.797997,43.958Q83.995995,43.976002,84.463997,43.903999Q84.931992,43.832001000000005,85.111992,43.796001000000004Q85.291992,43.760000000000005,85.795998,43.616001Q86.695999,43.400002,87.991997,42.464000999999996Q89.287994,41.528,89.179993,40.880001ZM94.723991,50.995999999999995Q96.091988,50.995999999999995,97.729988,50.438Q99.367989,49.880001,100.609993,49.268Q101.85199,48.656,103.507988,48.278Q105.163986,47.900002,106.675995,48.152Q106.063988,49.195999,105.163986,49.646Q104.263992,50.096001,102.391991,50.635999999999996Q102.21199,50.672001,102.103989,50.708Q101.347992,50.924,99.079987,51.68Q96.811989,52.436001000000005,95.551994,52.724001Q94.039993,53.048,93.175995,52.292Q92.311989,51.535999000000004,92.185989,50.222Q92.05999,48.908001,92.36599,47.468Q92.671989,46.028,93.283989,45.019999999999996Q94.18399,43.544001,95.785988,41.906Q97.387993,40.268001999999996,98.68399,39.620001Q98.899994,39.548,99.439987,39.242001Q99.979988,38.936001,100.357986,38.774Q100.735992,38.612001,101.05999,38.612001Q101.563988,38.612001,101.779991,39.08Q101.995987,39.548,101.707993,39.944Q101.563988,40.196000999999995,101.437988,40.34Q101.311989,40.484001,101.05999,40.646Q100.807991,40.808001000000004,100.681992,40.880001Q100.555992,40.952,100.069992,41.167998999999995Q99.583992,41.384001,99.331993,41.528Q98.215988,42.032001,97.405991,42.734001Q96.595993,43.436001000000005,95.695992,44.480000000000004Q95.371994,44.84,95.137993,45.181999000000005Q94.903992,45.524,94.759995,45.757999Q94.61599,45.992001,94.471992,46.370001Q94.327988,46.748001,94.255989,46.91Q94.18399,47.072001,94.021988,47.594002Q93.859993,48.116001,93.787994,48.367999999999995Q93.64399,48.799999,93.589989,49.25Q93.535988,49.700001,93.589989,50.114000000000004Q93.64399,50.528,93.931992,50.762001Q94.219994,50.995999999999995,94.723991,50.995999999999995Z" fill="#FFFFFF" fill-opacity="1"/></g></g></svg>